<?xml version="1.0" encoding="iso-8859-1"?>
<!-- Generator: Adobe Illustrator 19.0.0, SVG Export Plug-In . SVG Version: 6.00 Build 0)  -->
<svg xmlns="http://www.w3.org/2000/svg" xmlns:xlink="http://www.w3.org/1999/xlink" version="1.1" id="Layer_1" x="0px" y="0px" viewBox="0 0 512 512" style="enable-background:new 0 0 512 512;" xml:space="preserve" width="512px" height="512px">
<g>
	<g>
		<path d="M306.347,131.264c-2.005-2.091-4.779-3.264-7.68-3.264h-85.333c-2.901,0-5.675,1.173-7.68,3.264    C190.059,147.413,53.333,290.859,53.333,352c0,88.235,90.923,160,202.667,160s202.667-71.765,202.667-160    C458.667,290.859,321.941,147.413,306.347,131.264z M256,490.667c-99.989,0-181.333-62.208-181.333-138.667    c0-43.435,100.48-157.909,143.211-202.667h76.245C336.853,194.091,437.333,308.565,437.333,352    C437.333,428.459,355.989,490.667,256,490.667z" fill="#D80027"/>
	</g>
</g>
<g>
	<g>
		<path d="M341.333,128H170.667c-5.888,0-10.667,4.779-10.667,10.667s4.779,10.667,10.667,10.667h170.667    c5.888,0,10.667-4.779,10.667-10.667S347.221,128,341.333,128z" fill="#D80027"/>
	</g>
</g>
<g>
	<g>
		<path d="M392,14.272c-3.008-3.413-8.683-7.488-18.496-7.488c-21.44,0-55.531,20.736-72,31.659C289.344,21.163,271.317,0,256,0    s-33.344,21.163-45.504,38.443c-16.469-10.923-50.56-31.659-72-31.659c-9.835,0-15.488,4.075-18.496,7.488    c-4.843,5.483-7.04,12.608-6.336,20.629c3.435,39.488,83.861,104.789,93.013,112.107c1.877,1.493,4.245,2.325,6.656,2.325h85.333    c2.411,0,4.779-0.832,6.656-2.347c9.152-7.296,89.579-72.597,93.013-112.107C399.04,26.88,396.843,19.755,392,14.272z     M377.067,33.045c-1.941,22.251-50.219,68.949-82.176,94.955h-77.803c-31.936-26.005-80.235-72.704-82.176-94.955    c-0.256-3.115,0.683-4.181,0.96-4.544c0.171-0.107,0.981-0.384,2.624-0.384c15.552,0,50.347,20.779,68.608,33.877    c2.389,1.707,5.333,2.347,8.171,1.813c2.88-0.555,5.397-2.24,6.976-4.693c12.096-18.731,28.309-36.757,33.429-37.803    c5.653,1.045,21.867,19.072,33.984,37.803c1.6,2.453,4.117,4.16,6.976,4.693c2.901,0.512,5.824-0.107,8.213-1.813    c18.283-13.099,53.077-33.877,68.629-33.877c1.6,0,2.432,0.277,2.496,0.277C376.384,28.864,377.344,29.931,377.067,33.045z" fill="#D80027"/>
	</g>
</g>
<g>
	<g>
		<path d="M258.197,341.568l-2.347-0.448C234.133,337.109,224,330.411,224,320c0-11.563,14.656-21.333,32.021-21.333    c16.725,0,31.083,9.045,32.021,20.181c0.491,5.867,5.824,10.475,11.52,9.728c5.867-0.491,10.219-5.653,9.728-11.52    c-1.92-22.656-24.811-39.723-53.269-39.723c-29.419,0-53.355,19.136-53.355,42.667c0,21.909,16.576,36.075,51.2,42.453    l2.304,0.427c21.696,4.011,31.808,10.709,31.808,21.12c0,11.563-14.656,21.333-32.021,21.333c-16.704,0-31.061-9.045-32-20.181    c-0.491-5.867-5.568-10.304-11.52-9.728c-5.867,0.491-10.219,5.653-9.728,11.52c1.899,22.635,24.811,39.723,53.269,39.723    c29.419,0,53.355-19.136,53.355-42.667C309.333,362.091,292.757,347.947,258.197,341.568z" fill="#D80027"/>
	</g>
</g>
<g>
	<g>
		<path d="M256,256c-5.888,0-10.667,4.779-10.667,10.667v170.667c0,5.888,4.779,10.667,10.667,10.667    c5.888,0,10.667-4.779,10.667-10.667V266.667C266.667,260.779,261.888,256,256,256z" fill="#D80027"/>
	</g>
</g>
<g>
</g>
<g>
</g>
<g>
</g>
<g>
</g>
<g>
</g>
<g>
</g>
<g>
</g>
<g>
</g>
<g>
</g>
<g>
</g>
<g>
</g>
<g>
</g>
<g>
</g>
<g>
</g>
<g>
</g>
</svg>
